<svg width="173" height="40" viewBox="0 0 173 40" fill="none" xmlns="http://www.w3.org/2000/svg">
<path fill-rule="evenodd" clip-rule="evenodd" d="M13.6148 23.1982C13.6405 22.9601 13.5832 22.5544 13.6463 22.3583C13.7046 22.1756 13.6741 20.5754 13.6741 20.2618C13.6741 20.1304 13.7225 19.9456 13.7225 19.5684L13.7157 18.8739C13.7204 18.8173 13.7451 18.7931 13.7535 18.7128C13.7687 18.5695 13.7467 18.3766 13.7545 18.2268L13.7792 17.6088C13.795 17.5453 13.8313 17.548 13.8003 17.4591L13.0341 16.5512C12.8607 16.2985 12.6421 16.1062 12.4724 15.8594C12.2612 15.8567 12.1745 15.9973 11.9958 16.0615C11.9364 16.083 11.9086 16.1094 11.8497 16.139C11.546 16.2888 10.9669 16.2689 10.6569 16.2112C10.1288 16.1137 9.70425 15.7533 9.36795 15.3422C9.11363 15.0318 8.95389 14.5394 8.95389 14.1337C8.95389 13.902 8.9665 13.6854 9.02272 13.471C9.04111 13.4004 9.06686 13.3465 9.09524 13.2651C9.15882 13.0814 9.26654 12.8681 9.37899 12.7285L9.62386 12.4241C9.68376 12.3659 9.84245 12.2398 9.91391 12.1919C9.97224 12.1531 10.0248 12.1283 10.0852 12.0917C10.1477 12.0534 10.1908 12.0265 10.2644 11.9963L10.6338 11.8665C10.7336 11.8406 10.7836 11.8702 10.8829 11.8514C11.1135 11.8077 11.0484 11.7614 11.3195 11.8444C11.4131 11.8729 11.4824 11.8411 11.5728 11.8595C11.9711 11.9408 12.3247 12.1558 12.6264 12.4397L12.8628 12.7274C13.1135 13.0944 13.1492 13.3077 13.2716 13.6962L13.2863 14.3255C13.279 14.478 13.1098 14.9176 13.0341 15.0701C12.969 15.2005 12.9621 15.2328 13.0562 15.3503L13.3447 15.68C13.5249 15.9138 13.8365 16.2328 13.9857 16.4327C14.1434 16.6433 14.527 17.0151 14.5706 17.2398C14.5806 17.291 14.5764 17.3853 14.5764 17.4407C14.5758 17.5641 14.5932 17.7285 14.5553 17.8319C14.4376 18.1552 14.5937 18.7117 14.5217 19.0027C14.4266 19.3874 14.4902 20.2764 14.4755 20.7247L14.4555 21.362C14.3998 21.6718 14.4376 22.008 14.4392 22.3211C14.4403 22.5705 14.3956 22.6605 14.3956 22.9445L14.3835 23.639C14.3814 23.8749 14.2842 24.0975 14.3457 24.3696C14.3793 24.5177 14.8449 25.1212 14.9463 25.3011C15.0514 25.4881 15.1071 25.4143 15.043 25.6632C14.9826 25.8959 14.9489 26.1917 14.9179 26.2973C14.8528 26.522 14.6541 27.3103 14.6237 27.5678C14.6137 27.654 14.62 27.605 14.6037 27.6632L14.4345 28.4175C14.4135 28.5371 14.3431 28.6809 14.3252 28.8172L14.2737 29.1534C14.2327 29.3312 14.2285 29.3253 14.2705 29.5053C14.2821 29.5554 14.2748 29.5489 14.2842 29.6039C14.3089 29.7472 14.3767 29.87 14.4235 29.9945L14.5275 30.2892C14.5511 30.3485 14.5816 30.391 14.61 30.4546L15.1754 31.9174C15.2742 32.2558 15.507 32.7698 15.6509 33.1313L15.6783 33.2159C15.7592 33.5004 16.0256 34.0575 16.1386 34.4099C16.1533 34.4562 16.1575 34.4594 16.1801 34.5095L16.683 35.7735C16.7098 35.7994 16.674 35.7827 16.725 35.8021C16.7591 35.7627 16.735 35.8129 16.7513 35.7509L16.7586 35.5472C16.757 35.3759 16.7891 35.1625 16.7418 34.9998C16.6767 34.7768 16.715 33.4373 16.715 33.1421C16.715 32.9406 16.6667 33.1895 16.6672 32.6566L16.6677 31.1998C16.6677 31.0209 16.6204 30.9665 16.6204 30.7833L16.621 29.2106C16.621 29.064 16.5963 29.0128 16.6068 28.8582C16.6351 28.4369 16.5963 27.7623 16.5994 27.3135C16.601 27.0985 16.5542 27.0333 16.5542 26.7822L16.5558 25.2095C16.5558 25.0678 16.5138 25.0743 16.5169 24.9541L16.5075 24.0069C16.508 23.799 16.5069 23.5905 16.5075 23.3825C16.5075 23.2618 16.519 23.174 16.4885 23.0738C16.4623 22.9876 16.4686 23.0781 16.4659 22.9445L16.4402 19.2899C16.4402 19.1632 16.395 19.0598 16.395 18.9197C16.395 18.5399 16.4234 17.4073 16.3924 17.2096C16.3703 17.0706 16.3629 17.1062 16.3629 16.9305C16.3629 16.5555 16.3992 15.4235 16.3367 15.1816C16.281 14.965 16.3162 14.4833 16.3162 14.2247C16.3162 14.0868 16.2988 14.097 16.3656 13.9672C16.4412 13.8196 16.5658 13.6822 16.6782 13.5507L17.1695 12.9672C17.2305 12.8988 17.2636 12.8433 17.3298 12.763C17.4291 12.6439 17.4501 12.694 17.4559 12.513L17.2289 12.228C17.0991 12.0313 16.9741 11.77 16.9189 11.5335C16.8742 11.3428 16.8138 10.9101 16.8711 10.7178C16.8968 10.631 16.8895 10.5836 16.9094 10.5012L17.2179 9.80021C17.2836 9.68976 17.3592 9.60355 17.4396 9.52165C17.674 9.28405 18.0014 9.03675 18.3534 8.93276C18.6634 8.84117 18.8668 8.84332 19.1616 8.84332C19.295 8.84332 19.789 8.98933 19.9167 9.082C19.986 9.13211 19.9944 9.12672 20.0559 9.15474C20.1106 9.17952 20.14 9.21778 20.1931 9.2598C20.419 9.43922 20.574 9.59708 20.7275 9.84115C20.749 9.87564 20.7621 9.88264 20.7868 9.91982C20.8662 10.0389 20.9224 10.2065 20.9755 10.3482C21.0995 10.6784 21.089 11.3584 20.9734 11.6897L20.8867 11.8794C20.6691 12.4015 20.3229 12.6908 19.8715 12.9613L19.3649 13.1461C19.3234 13.1504 19.2746 13.1391 19.211 13.1472C18.7007 13.2156 19.1148 13.2032 18.6776 13.1455C18.4548 13.1159 18.3035 13.027 18.1148 13.0378C18.0092 13.1849 17.8915 13.3077 17.7812 13.4553L17.2641 14.0803C16.9662 14.4559 17.1222 14.2533 17.1217 15.0787C17.1217 15.3987 17.0834 16.6444 17.1349 16.8044C17.2116 17.041 17.1701 17.3427 17.1695 17.5992C17.169 17.833 17.1338 18.5765 17.1732 18.7516C17.1984 18.8637 17.2221 18.8168 17.2158 18.986C17.2047 19.2904 17.1848 20.4865 17.2273 20.7785L17.2804 23.4272C17.2783 23.8205 17.2515 24.2138 17.2689 24.6077C17.2736 24.7203 17.2841 24.6961 17.3083 24.7699C17.3414 24.8717 17.3256 26.3501 17.3256 26.5953C17.3256 26.7817 17.3655 26.7149 17.3771 26.8501C17.4034 27.1589 17.3498 27.4616 17.3598 27.7747C17.3703 28.1098 17.3282 28.5085 17.4023 28.8329C17.4354 28.9783 17.417 30.1125 17.417 30.3646C17.417 30.4573 17.4155 30.55 17.4149 30.6427C17.4144 30.7703 17.4402 30.7973 17.4402 30.8964L17.4275 32.4228C17.4265 32.6297 17.4717 32.6938 17.4717 32.8851L17.4848 34.5036C17.4848 34.6981 17.529 34.71 17.5284 34.9653C17.5274 35.4637 17.4853 36.0537 17.519 36.5397C17.5284 36.6776 17.5531 36.6771 17.5531 36.8392L17.572 37.3312C17.5999 37.5849 17.4585 37.906 17.7912 37.9621C17.8185 37.9669 17.8195 37.9669 17.85 37.9766C17.9966 38.0235 18.1164 37.9896 18.2462 37.9642L18.7706 37.8559C18.8752 37.8204 18.913 37.8198 19.0402 37.7967L19.037 34.4115C19.037 34.3059 19.046 34.1518 19.0313 34.0516C19.015 33.9363 18.9871 33.9023 18.9871 33.7407L18.9882 30.3183C18.9882 30.1464 18.9551 30.2375 18.9551 29.9018C18.9551 29.4271 18.9882 26.5554 18.9293 26.3679C18.872 26.1863 18.9078 25.9579 18.9078 25.7623C18.9078 25.0161 18.9477 22.8103 18.8794 22.3777C18.8521 22.2047 18.8642 21.2613 18.8736 21.0916C18.8936 20.7419 18.9472 20.7096 19.1348 20.507L21.4579 17.9666C21.6171 17.8168 21.4621 17.7188 21.3155 17.402C21.3013 17.3712 21.2997 17.3739 21.2792 17.3276C21.1736 17.0911 21.1331 16.7947 21.1447 16.4892C21.1657 15.9429 21.3659 15.5738 21.6181 15.1703C21.7584 14.9456 22.132 14.6956 22.3564 14.5889C22.3984 14.569 22.3953 14.5717 22.4342 14.5545L22.6318 14.4785C23.0232 14.3319 23.5124 14.3319 23.8944 14.4828C24.1719 14.5927 24.0899 14.5119 24.4656 14.7743C24.5166 14.8098 24.5481 14.84 24.6075 14.8804C24.7799 14.9979 24.8608 15.132 24.9827 15.305C25.3615 15.8432 25.4934 16.5205 25.288 17.1563L25.1598 17.5054C25.1109 17.5975 25.1135 17.541 25.1104 17.6401L24.9753 17.6169C24.8697 17.951 24.4346 18.2516 24.1519 18.4127C24.0321 18.4806 23.8046 18.4855 23.7457 18.5997C23.7436 18.6035 23.74 18.6126 23.7373 18.6169C23.7347 18.6212 23.7315 18.6282 23.7289 18.6331C23.6265 18.7947 23.0453 18.7064 22.9055 18.7064C22.8094 18.7064 22.5671 18.6029 22.461 18.5593C22.0611 18.3939 22.2056 18.3314 21.8756 18.6708L21.4931 19.0884C21.2461 19.3852 20.9708 19.6368 20.7269 19.9224L20.5551 20.1385C20.4873 20.2117 20.4285 20.2791 20.3544 20.3502L19.7848 20.9676C19.6687 21.1002 19.6618 21.0285 19.6618 21.2532V21.9472C19.6618 22.118 19.6981 22.1627 19.6997 22.3162L19.6933 25.7165C19.6933 25.8582 19.7128 25.9654 19.7128 26.1325C19.7128 26.6373 19.6834 29.4519 19.717 29.6157C19.7343 29.6998 19.7601 29.6965 19.7643 29.7849C19.7885 30.3048 19.7617 32.092 19.7585 32.7461V33.3474C19.7585 33.5047 19.7864 33.4223 19.8068 33.5171C19.8279 33.6146 19.7743 36.9976 19.8126 37.2056C19.8321 37.3107 19.8589 37.3118 19.8583 37.4642C19.8589 37.579 19.852 37.6253 19.9845 37.5941C20.0291 37.5833 20.1416 37.5472 20.2109 37.5267L20.4316 37.4745C20.5267 37.4448 20.4111 37.4583 20.5388 37.4502C20.7327 37.4373 21.2797 37.2978 21.4311 37.1798C21.6097 37.0407 22.1588 36.3549 22.3144 36.1647L23.3832 34.8996C23.4799 34.7892 23.4657 34.7671 23.6328 34.6006L24.4267 33.6572C24.6354 33.3835 25.0557 32.9837 25.2139 32.7078C25.2517 32.6421 25.2775 32.5737 25.2985 32.5133L25.3726 31.9826C25.3736 31.9142 25.3883 31.7854 25.3983 31.7127C25.4157 31.5823 25.4246 31.3425 25.4582 31.1992C25.4787 31.1114 25.4813 31.022 25.4824 30.918C25.484 30.7563 25.5181 30.7849 25.5318 30.6809C25.5901 30.245 25.4257 30.3953 26.0131 29.9918C26.2496 29.8291 26.475 29.6604 26.6873 29.502C26.9385 29.3151 27.5974 28.9573 27.6683 28.6044C27.7303 28.2962 27.6426 27.3938 27.5932 27.0872L27.4797 25.6309C27.4497 25.5005 27.4949 25.3232 27.4582 25.1923C27.4193 25.0543 27.4151 25.1109 27.4214 24.9304C27.4287 24.7176 27.3767 24.6077 27.3783 24.3986C27.383 23.8868 27.2968 24.1707 27.7366 23.6406L28.8428 22.4148C28.8864 22.3674 28.9347 22.3152 28.9867 22.2634L29.8065 21.3459C29.8622 21.2764 29.8932 21.2376 29.9436 21.1864C30.0371 21.091 30.1259 20.98 30.2263 20.875C30.3172 20.7796 30.3887 20.6859 30.4964 20.5733C30.6887 20.3728 30.8474 20.1638 31.0492 19.9607C31.2226 19.7861 31.4506 19.5544 31.5825 19.3281C31.6172 19.2683 31.6556 19.1999 31.6839 19.1309C31.6997 19.0927 31.7097 19.0603 31.7223 19.0307C31.7402 18.9898 31.746 18.9828 31.7691 18.9192L32.5068 17.0841C32.5525 17.0059 32.5536 16.9655 32.5941 16.8718C32.6923 16.645 32.7617 16.4111 32.8768 16.1897C33.027 15.9004 33.0743 15.451 32.819 15.1795C32.6004 14.9472 32.222 15.0297 31.9488 15.0453C31.8311 15.0523 31.8495 15.0663 31.7544 15.0846C31.6729 15.1003 31.6225 15.083 31.5479 15.1008C31.2862 15.1633 31.0203 15.1843 30.7418 15.2231C30.5973 15.243 30.4848 15.2603 30.3514 15.2878L29.9415 15.3443C29.5721 15.3508 29.6378 15.4596 29.385 15.0254L28.3173 13.2765C28.2605 13.1854 28.1943 13.0771 28.1428 12.9914C28.1076 12.9333 28.0877 12.9009 28.0551 12.8503C28.0335 12.8163 28.0346 12.8153 28.0125 12.7765L27.4445 11.8573C27.4419 11.8535 27.4377 11.8481 27.435 11.8444L27.2506 11.5496C27.1833 11.4376 27.1466 11.3702 27.0777 11.2636L26.0068 9.51465C25.8917 9.33793 25.8597 9.325 25.825 9.10679L25.5828 7.82932C25.5455 7.59333 25.5612 7.57286 25.4924 7.31747C25.4814 7.27545 25.485 7.26575 25.4756 7.22103C25.4341 7.02384 25.4115 6.73989 25.3484 6.54162L25.3263 6.45003C25.227 5.79378 24.6989 5.86544 24.2045 5.6968C24.0106 5.63053 23.7153 5.63053 23.5172 5.56642C23.3742 5.52008 23.1746 5.50284 23.0258 5.47051C22.8929 5.44196 22.7847 5.38916 22.6585 5.37784C22.3201 5.34713 21.8325 5.18334 21.7101 5.17202L19.9734 4.82505C19.386 4.74477 19.2898 4.50177 18.593 5.08474C18.5042 5.15909 18.4207 5.22159 18.3424 5.29002C18.2956 5.33097 18.2651 5.34713 18.2142 5.38754C18.0823 5.49206 18.0775 5.512 17.9299 5.42525L16.3766 4.65479C16.3251 4.63324 16.2668 4.59121 16.2174 4.56858L15.6026 4.25016C15.6147 4.05081 15.6037 4.0729 15.5684 3.91934C15.538 3.78788 15.5811 3.7243 15.5301 3.56321C15.4938 3.44737 15.5296 3.33314 15.5059 3.19252C15.4907 3.10524 15.4802 3.13541 15.4718 3.05028C15.4644 2.97862 15.4723 2.9269 15.4618 2.84985C15.4124 2.48132 15.3929 2.24372 15.0782 2.08208C14.734 1.90536 14.5175 2.06268 14.1528 2.10471C14.0267 2.11926 13.9532 2.14296 13.8486 2.15535L13.3652 2.21139C13.2601 2.22486 13.2984 2.24102 13.2217 2.25557C13.1492 2.26904 13.1376 2.24803 13.0583 2.27119C12.9485 2.30352 13.0641 2.30029 12.9133 2.30675C12.6458 2.31861 12.3731 2.38973 12.1251 2.42152C12.0216 2.43499 12.0589 2.44899 11.9821 2.46085C11.5796 2.52227 11.505 2.50233 11.0416 2.61009C10.8314 2.65858 10.5802 2.63218 10.3684 2.70384L10.3348 2.71462C10.2218 2.73778 10.3248 2.68714 10.0815 2.7561C10.0758 2.75772 10.0705 2.75987 10.0642 2.76095L9.93703 2.76796C9.84612 2.77819 9.86084 2.79705 9.79463 2.81106C9.59863 2.85416 9.36217 2.83584 9.15672 2.89457C9.05267 2.9242 9.15146 2.91882 9.01169 2.92636C8.89608 2.93229 8.93759 2.92798 8.85247 2.95438C8.78994 2.97377 8.87139 2.96084 8.78311 2.97108C8.47309 3.00772 8.2051 3.03843 7.88982 3.12194C7.8089 3.14349 7.88982 3.1214 7.83307 3.1311C7.7821 3.14026 7.76581 3.14672 7.71221 3.1769C7.55142 3.26687 7.45789 3.41504 7.35069 3.54704C7.28553 3.62678 7.24139 3.67527 7.18727 3.74693C7.07219 3.89887 6.97288 4.01202 6.86884 4.1618L6.22094 4.97752C6.15473 5.06265 6.10639 5.11222 6.05752 5.18011L4.29353 7.43924C4.06075 7.73234 3.85529 7.98503 3.64405 8.25604C3.43124 8.52921 2.80173 9.2528 2.7124 9.5195C2.69769 9.56314 2.68718 9.59924 2.66564 9.65797C2.53847 10.0093 2.5905 10.4096 2.51903 10.7571C2.48488 10.923 2.41867 11.2242 2.41815 11.4004C2.41762 11.5518 2.37821 11.5755 2.37295 11.7242C2.37033 11.7926 2.37558 11.8406 2.36349 11.8939C2.34248 11.9855 2.3367 11.9284 2.32934 12.0486C2.32041 12.1946 2.2852 12.2253 2.281 12.3718C2.27784 12.4861 2.26681 12.5782 2.24001 12.6897C2.21216 12.8077 2.23265 12.9397 2.21216 13.0324L2.17065 13.2727C2.17012 13.2813 2.1675 13.3045 2.16592 13.3126C2.16487 13.3185 2.16277 13.3244 2.16119 13.3303C2.13439 13.4257 2.12388 13.354 2.12231 13.5054C2.12073 13.6843 2.08657 13.8158 2.07449 14.0087C2.04716 14.4354 1.8601 14.8169 2.20901 15.1865L3.70658 16.7958C3.71079 16.8007 3.72287 16.8158 3.72708 16.8206C3.73023 16.8238 3.73444 16.8292 3.73759 16.8325L5.02761 18.2161C5.21677 18.4068 5.77114 19.0372 5.95348 19.118C5.98973 19.1342 5.99131 19.1342 6.01863 19.1455C6.02546 19.1482 6.04438 19.1562 6.05121 19.1589C6.12688 19.1929 6.10429 19.2037 6.21463 19.209C6.56775 19.2247 6.49628 19.1778 6.69123 19.1584C6.74851 19.1525 6.81156 19.1579 6.86989 19.1589C7.07219 19.1616 7.01439 19.1029 7.18359 19.1056C7.34701 19.1083 7.37171 19.1169 7.52094 19.0808C7.71589 19.0339 7.98755 19.0727 8.19774 19.0383L8.51512 18.9962C8.57713 18.9962 8.63335 19.0011 8.6922 18.9881C8.74002 18.9774 8.76997 18.9515 8.82515 18.9488C8.93444 18.9429 9.02482 18.965 9.14463 18.945C9.32276 18.9149 9.2471 18.9079 9.46254 18.9062C9.78149 18.9041 10.1446 18.875 10.4625 18.813L11.4677 18.7355C11.5476 18.7414 11.6674 18.805 11.731 18.8357C11.804 18.8712 11.7898 18.8718 11.8503 18.9036C11.897 18.9283 11.9249 18.9353 11.9737 18.958L12.6947 19.3287C12.7005 19.3319 12.7178 19.3427 12.7241 19.3459C12.9868 19.4962 12.8408 19.5792 12.887 19.8621C12.9816 20.4359 12.9653 21.0145 13.0178 21.5786C13.0473 21.8933 12.9889 22.1207 13.0762 22.3782L13.0898 22.4337C13.1382 22.625 13.3641 22.9622 13.4986 23.125C13.5412 23.1767 13.5365 23.1875 13.6148 23.1955V23.1982ZM20.2992 11.0351L20.2971 10.8498C20.264 10.6353 20.0911 10.2442 19.9214 10.0707C19.8604 10.0082 19.8273 9.97477 19.7533 9.9182C19.594 9.79643 19.6492 9.85678 19.5341 9.79428C19.1148 9.5653 18.5074 9.63642 18.1516 9.93113C17.9593 10.0901 17.8054 10.2846 17.7286 10.5189C17.716 10.5577 17.7171 10.5653 17.706 10.6116C17.6682 10.7711 17.5889 11.0049 17.6214 11.1143C17.6498 11.2102 17.6283 11.0971 17.6551 11.1887C17.6903 11.3072 17.6199 11.2948 17.8106 11.6822C17.8847 11.8331 17.9378 11.8691 18.0224 11.971C18.17 12.1488 18.4333 12.2544 18.6408 12.3363C18.7911 12.3955 19.1227 12.3848 19.326 12.3196C19.501 12.2635 19.7459 12.1342 19.8647 12.013C19.8899 11.9877 19.9041 11.9694 19.9309 11.9419C19.986 11.8848 19.9923 11.8821 20.0428 11.8013C20.171 11.5971 20.2987 11.2684 20.2987 11.0367L20.2992 11.0351ZM21.9439 16.4925C21.9439 16.7856 21.9308 16.7538 22.0085 17.014C22.0138 17.0313 22.018 17.049 22.0243 17.0674C22.1909 17.5474 22.6538 17.8933 23.153 17.8928C23.4399 17.8928 23.6175 17.9133 23.8771 17.7667C23.9465 17.7274 24.1866 17.5507 24.2392 17.4892C24.3668 17.34 24.4572 17.1913 24.525 16.9952C24.5329 16.9725 24.535 16.9628 24.5423 16.9424C24.6017 16.7829 24.5912 16.7085 24.5912 16.5156C24.5912 16.1902 24.4267 15.7818 24.216 15.59C24.1719 15.5496 24.1624 15.5577 24.1199 15.5264C24.0195 15.4521 24.0495 15.4203 23.8282 15.3158C23.3269 15.0792 22.7305 15.1762 22.3375 15.5631C22.0753 15.8212 21.9439 16.131 21.9439 16.493V16.4925ZM11.1093 15.4499C11.804 15.4499 12.3279 14.9887 12.4666 14.3654C12.496 14.2344 12.5475 14.048 12.5155 13.8885L12.4351 13.5879C12.3358 13.3438 12.2086 13.1267 12.0105 12.9548C11.6248 12.6202 11.0904 12.5319 10.6165 12.7226C10.5923 12.7323 10.6102 12.7253 10.577 12.7355C10.5629 12.7398 10.5639 12.7361 10.5376 12.7463L10.3012 12.888C10.0211 13.0798 9.74786 13.5442 9.74419 13.902C9.74313 13.9957 9.74471 14.0868 9.74576 14.1805C9.74839 14.409 9.83089 14.5701 9.93703 14.7786C9.99536 14.8939 9.98905 14.8476 10.0553 14.9365C10.3043 15.2711 10.6711 15.4494 11.1099 15.4494L11.1093 15.4499Z" fill="#8D4087"/>
<path d="M61.096 25.432H55.432L54.592 28H49L55.216 11.008H61.36L67.552 28H61.936L61.096 25.432ZM59.8 21.424L58.264 16.696L56.728 21.424H59.8ZM80.7625 11.008V15.232H74.0905V17.584H78.8905V21.592H74.0905V28H68.7625V11.008H80.7625ZM91.1112 28L87.9192 21.904H87.8952V28H82.5672V11.008H90.4872C91.8632 11.008 93.0392 11.256 94.0152 11.752C94.9912 12.232 95.7192 12.896 96.1992 13.744C96.6952 14.576 96.9432 15.52 96.9432 16.576C96.9432 17.712 96.6232 18.72 95.9832 19.6C95.3592 20.48 94.4552 21.112 93.2712 21.496L96.9672 28H91.1112ZM87.8952 18.352H90.0072C90.5192 18.352 90.9032 18.24 91.1592 18.016C91.4152 17.776 91.5432 17.408 91.5432 16.912C91.5432 16.464 91.4072 16.112 91.1352 15.856C90.8792 15.6 90.5032 15.472 90.0072 15.472H87.8952V18.352ZM103.973 11.008V28H98.6453V11.008H103.973ZM123.492 11.008L117.78 28H110.892L105.18 11.008H110.844L114.348 22.696L117.828 11.008H123.492ZM135.58 25.432H129.916L129.076 28H123.484L129.7 11.008H135.844L142.036 28H136.42L135.58 25.432ZM134.284 21.424L132.748 16.696L131.212 21.424H134.284ZM156.591 11.008V15.232H152.079V28H146.751V15.232H142.287V11.008H156.591ZM163.364 15.256V17.344H168.644V21.352H163.364V23.752H169.364V28H158.036V11.008H169.364V15.256H163.364Z" fill="#8D4087"/>
</svg>
